HIERARCHY
ROOT Hip
{
	OFFSET -0.187259 0.322806 0.217702
	CHANNELS 6 Xposition Yposition Zposition Xrotation Yrotation Zrotation
	JOINT LowerSpine
	{
		OFFSET -0.047584 0.129458 0.268601
		CHANNELS 6 Xposition Yposition Zposition Xrotation Yrotation Zrotation
		JOINT MiddleSpine
		{
			OFFSET -0.001819 -0.027808 0.235391
			CHANNELS 3 Xrotation Yrotation Zrotation
			JOINT Chest
			{
				OFFSET -0.022077 0.035141 0.295904
				CHANNELS 3 Xrotation Yrotation Zrotation
				JOINT Neck
				{
					OFFSET -0.016945 -0.035887 0.659142
					CHANNELS 6 Xposition Yposition Zposition Xrotation Yrotation Zrotation
					JOINT Head
					{
						OFFSET 0.020082 -0.124289 0.365292
						CHANNELS 3 Xrotation Yrotation Zrotation
						End Site
						{
							OFFSET -0.000662 -0.005406 0.053289
						}
					}
				}
				JOINT LClavicle
				{
					OFFSET 0.098347 -0.218338 0.625145
					CHANNELS 6 Xposition Yposition Zposition Xrotation Yrotation Zrotation
					JOINT LShoulder
					{
						OFFSET 0.294682 0.230461 0.114434
						CHANNELS 3 Xrotation Yrotation Zrotation
						JOINT LForearm
						{
							OFFSET 0.793532 0.231667 0.030210
							CHANNELS 3 Xrotation Yrotation Zrotation
							JOINT LHand
							{
								OFFSET 0.662387 0.191165 0.029518
								CHANNELS 3 Xrotation Yrotation Zrotation
								JOINT LFinger1
								{
									OFFSET 0.277019 -0.000371 0.029136
									CHANNELS 6 Xposition Yposition Zposition Xrotation Yrotation Zrotation
									JOINT LFinger11
									{
										OFFSET 0.101520 0.012008 -0.021501
										CHANNELS 3 Xrotation Yrotation Zrotation
										JOINT LFinger12
										{
											OFFSET 0.069307 0.008194 -0.014682
											CHANNELS 3 Xrotation Yrotation Zrotation
											End Site
											{
												OFFSET 0.051335 0.006970 -0.013620
											}
										}
									}
								}
								JOINT LFinger2
								{
									OFFSET 0.262229 0.065532 0.037240
									CHANNELS 6 Xposition Yposition Zposition Xrotation Yrotation Zrotation
									JOINT LFinger21
									{
										OFFSET 0.118734 0.034257 0.005276
										CHANNELS 3 Xrotation Yrotation Zrotation
										JOINT LFinger22
										{
											OFFSET 0.065812 0.018999 0.002944
											CHANNELS 3 Xrotation Yrotation Zrotation
											End Site
											{
												OFFSET 0.051480 0.014712 -0.001656
											}
										}
									}
								}
								JOINT LFinger3
								{
									OFFSET 0.230346 0.126942 0.032029
									CHANNELS 6 Xposition Yposition Zposition Xrotation Yrotation Zrotation
									JOINT LFinger31
									{
										OFFSET 0.106122 0.037627 -0.000782
										CHANNELS 3 Xrotation Yrotation Zrotation
										JOINT LFinger32
										{
											OFFSET 0.060471 0.021453 -0.000424
											CHANNELS 3 Xrotation Yrotation Zrotation
											End Site
											{
												OFFSET 0.050517 0.017301 -0.004253
											}
										}
									}
								}
								JOINT LFinger4
								{
									OFFSET 0.201165 0.166987 -0.001935
									CHANNELS 6 Xposition Yposition Zposition Xrotation Yrotation Zrotation
									JOINT LFinger41
									{
										OFFSET 0.061467 0.038073 -0.010410
										CHANNELS 3 Xrotation Yrotation Zrotation
										JOINT LFinger42
										{
											OFFSET 0.045073 0.027927 -0.007618
											CHANNELS 3 Xrotation Yrotation Zrotation
											End Site
											{
												OFFSET 0.045616 0.025800 -0.011085
											}
										}
									}
								}
								JOINT LFinger0
								{
									OFFSET 0.065537 -0.022203 -0.042253
									CHANNELS 6 Xposition Yposition Zposition Xrotation Yrotation Zrotation
									JOINT LFinger01
									{
										OFFSET 0.120993 -0.044118 -0.034630
										CHANNELS 3 Xrotation Yrotation Zrotation
										JOINT LFinger02
										{
											OFFSET 0.079092 -0.026727 -0.024648
											CHANNELS 3 Xrotation Yrotation Zrotation
											End Site
											{
												OFFSET 0.049150 -0.015340 -0.014777
											}
										}
									}
								}
							}
						}
					}
				}
				JOINT RClavicle
				{
					OFFSET -0.017030 -0.250910 0.620406
					CHANNELS 6 Xposition Yposition Zposition Xrotation Yrotation Zrotation
					JOINT RShoulder
					{
						OFFSET -0.379418 0.040166 0.086762
						CHANNELS 3 Xrotation Yrotation Zrotation
						JOINT RForearm
						{
							OFFSET -0.797334 -0.217485 -0.035140
							CHANNELS 3 Xrotation Yrotation Zrotation
							JOINT RHand
							{
								OFFSET -0.664732 -0.183522 -0.024998
								CHANNELS 3 Xrotation Yrotation Zrotation
								JOINT RFinger1
								{
									OFFSET -0.237335 -0.145590 0.008009
									CHANNELS 6 Xposition Yposition Zposition Xrotation Yrotation Zrotation
									JOINT RFinger11
									{
										OFFSET -0.090874 -0.042311 -0.029404
										CHANNELS 3 Xrotation Yrotation Zrotation
										JOINT RFinger12
										{
											OFFSET -0.062036 -0.028889 -0.020080
											CHANNELS 3 Xrotation Yrotation Zrotation
											End Site
											{
												OFFSET -0.046211 -0.020570 -0.017627
											}
										}
									}
								}
								JOINT RFinger2
								{
									OFFSET -0.259799 -0.081853 0.015799
									CHANNELS 6 Xposition Yposition Zposition Xrotation Yrotation Zrotation
									JOINT RFinger21
									{
										OFFSET -0.119151 -0.032905 -0.004496
										CHANNELS 3 Xrotation Yrotation Zrotation
										JOINT RFinger22
										{
											OFFSET -0.066049 -0.018226 -0.002472
											CHANNELS 3 Xrotation Yrotation Zrotation
											End Site
											{
												OFFSET -0.051286 -0.014302 -0.005878
											}
										}
									}
								}
								JOINT RFinger3
								{
									OFFSET -0.264385 -0.012736 0.011707
									CHANNELS 6 Xposition Yposition Zposition Xrotation Yrotation Zrotation
									JOINT RFinger31
									{
										OFFSET -0.109735 -0.023316 -0.009649
										CHANNELS 3 Xrotation Yrotation Zrotation
										JOINT RFinger32
										{
											OFFSET -0.062536 -0.013276 -0.005478
											CHANNELS 3 Xrotation Yrotation Zrotation
											End Site
											{
												OFFSET -0.051623 -0.011536 -0.008448
											}
										}
									}
								}
								JOINT RFinger4
								{
									OFFSET -0.257928 0.037371 -0.020794
									CHANNELS 6 Xposition Yposition Zposition Xrotation Yrotation Zrotation
									JOINT RFinger41
									{
										OFFSET -0.071303 0.000588 -0.015862
										CHANNELS 3 Xrotation Yrotation Zrotation
										JOINT RFinger42
										{
											OFFSET -0.052290 0.000438 -0.011615
											CHANNELS 3 Xrotation Yrotation Zrotation
											End Site
											{
												OFFSET -0.051378 -0.001585 -0.015069
											}
										}
									}
								}
								JOINT RFinger0
								{
									OFFSET -0.040868 -0.052242 -0.046621
									CHANNELS 6 Xposition Yposition Zposition Xrotation Yrotation Zrotation
									JOINT RFinger01
									{
										OFFSET -0.077109 -0.100051 -0.042773
										CHANNELS 3 Xrotation Yrotation Zrotation
										JOINT RFinger02
										{
											OFFSET -0.051355 -0.063556 -0.030004
											CHANNELS 3 Xrotation Yrotation Zrotation
											End Site
											{
												OFFSET -0.032618 -0.038425 -0.018136
											}
										}
									}
								}
							}
						}
					}
				}
			}
		}
	}
	JOINT RThigh
	{
		OFFSET -0.304293 -0.067619 0.106440
		CHANNELS 6 Xposition Yposition Zposition Xrotation Yrotation Zrotation
		JOINT RShin
		{
			OFFSET 0.003445 0.081275 -1.204692
			CHANNELS 3 Xrotation Yrotation Zrotation
			JOINT RFoot
			{
				OFFSET 0.024354 0.085728 -1.182076
				CHANNELS 3 Xrotation Yrotation Zrotation
				JOINT RToe
				{
					OFFSET 0.077216 -0.252054 -0.147348
					CHANNELS 3 Xrotation Yrotation Zrotation
					End Site
					{
						OFFSET 0.014655 -0.051408 -0.003426
					}
				}
			}
		}
	}
	JOINT LThigh
	{
		OFFSET 0.285699 0.098957 0.130685
		CHANNELS 6 Xposition Yposition Zposition Xrotation Yrotation Zrotation
		JOINT LShin
		{
			OFFSET 0.046163 0.093336 -1.202946
			CHANNELS 3 Xrotation Yrotation Zrotation
			JOINT LFoot
			{
				OFFSET 0.024354 0.085728 -1.182075
				CHANNELS 3 Xrotation Yrotation Zrotation
				JOINT LToe
				{
					OFFSET 0.077216 -0.252057 -0.147349
					CHANNELS 3 Xrotation Yrotation Zrotation
					End Site
					{
						OFFSET 0.014655 -0.051408 -0.003426
					}
				}
			}
		}
	}
}
MOTION
Frames: 4
Frame Time: 0.041667
-0.059064 1.256341 1.439622 4.856982 27.083409 28.742973 -0.047584 0.129458 0.268601 -0.000001 -0.000008 0.000004 -4.890398 4.179404 0.006742 -17.185186 13.491457 1.396791 -0.016945 -0.035887 0.659143 -25.127851 7.495747 6.064101 -35.452292 27.165223 11.576909 0.098347 -0.218338 0.625145 -5.289313 -2.896218 -0.215814 7.412873 -50.986546 12.863674 0.053699 0.174734 -2.424863 0.000008 -0.000007 0.000044 0.277019 -0.000371 0.029136 0.000001 0.000004 -0.000002 0.000007 -0.000004 -0.000008 0.000013 -0.000011 0.000001 0.262230 0.065532 0.037240 -0.000001 0.000002 0.000000 -0.000000 0.000001 -0.000008 -0.000000 0.000001 0.000000 0.230345 0.126942 0.032030 0.000000 0.000001 -0.000005 0.000001 -0.000006 0.000010 0.000001 -0.000002 0.000003 0.201166 0.166987 -0.001935 -0.000000 0.000004 -0.000017 0.000012 0.000012 0.000016 -0.000004 0.000012 -0.000009 0.065536 -0.022202 -0.042253 0.000013 0.000004 -0.000009 -0.000009 -0.000006 0.000023 0.000016 -0.000019 0.000012 -0.017029 -0.250910 0.620406 -10.192754 29.849983 5.306700 -105.512824 -33.334086 52.315865 0.065680 0.206521 -2.867518 -0.000004 0.000010 -0.000003 -0.237336 -0.145589 0.008009 -0.000001 0.000009 0.000005 -0.000007 0.000007 -0.000000 -0.000003 -0.000002 0.000002 -0.259800 -0.081853 0.015799 0.000005 0.000003 0.000016 -0.000000 -0.000001 -0.000003 -0.000008 0.000010 -0.000003 -0.264386 -0.012735 0.011707 0.000006 -0.000000 0.000013 -0.000001 -0.000001 -0.000005 -0.000001 -0.000006 0.000004 -0.257927 0.037372 -0.020793 -0.000001 0.000005 0.000012 -0.000007 0.000007 0.000008 0.000009 0.000010 -0.000006 -0.040868 -0.052241 -0.046620 -0.000003 0.000011 0.000010 -0.000012 -0.000009 -0.000003 -0.000009 -0.000004 -0.000009 -0.316937 0.000035 0.038331 -89.359829 18.176595 -24.970431 79.325141 17.373773 -10.649595 4.034675 -0.235096 2.684617 0.000046 -0.000004 -0.000001 0.274219 0.099813 0.179215 18.690306 -106.469057 95.068051 88.831262 17.984686 -13.183010 -0.610793 -0.377367 0.318412 -1.361528 -0.383643 -0.060482 
-0.059064 1.256341 1.439622 4.856982 27.083409 28.742973 -0.047584 0.129458 0.268601 -0.000001 -0.000008 0.000004 -4.890398 4.179404 0.006742 -17.185186 13.491457 1.396791 -0.016945 -0.035887 0.659143 -25.127851 7.495747 6.064101 -35.452292 27.165223 11.576909 0.098347 -0.218338 0.625145 -5.289313 -2.896218 -0.215814 7.412873 -50.986546 12.863674 0.053699 0.174734 -2.424863 0.000008 -0.000007 0.000044 0.277019 -0.000371 0.029136 0.000001 0.000004 -0.000002 0.000007 -0.000004 -0.000008 0.000013 -0.000011 0.000001 0.262230 0.065532 0.037240 -0.000001 0.000002 0.000000 -0.000000 0.000001 -0.000008 -0.000000 0.000001 0.000000 0.230345 0.126942 0.032030 0.000000 0.000001 -0.000005 0.000001 -0.000006 0.000010 0.000001 -0.000002 0.000003 0.201166 0.166987 -0.001935 -0.000000 0.000004 -0.000017 0.000012 0.000012 0.000016 -0.000004 0.000012 -0.000009 0.065536 -0.022202 -0.042253 0.000013 0.000004 -0.000009 -0.000009 -0.000006 0.000023 0.000016 -0.000019 0.000012 -0.017029 -0.250910 0.620406 -10.192754 29.849983 5.306700 -105.512824 -33.334086 52.315865 0.065680 0.206521 -2.867518 -0.000004 0.000010 -0.000003 -0.237336 -0.145589 0.008009 -0.000001 0.000009 0.000005 -0.000007 0.000007 -0.000000 -0.000003 -0.000002 0.000002 -0.259800 -0.081853 0.015799 0.000005 0.000003 0.000016 -0.000000 -0.000001 -0.000003 -0.000008 0.000010 -0.000003 -0.264386 -0.012735 0.011707 0.000006 -0.000000 0.000013 -0.000001 -0.000001 -0.000005 -0.000001 -0.000006 0.000004 -0.257927 0.037372 -0.020793 -0.000001 0.000005 0.000012 -0.000007 0.000007 0.000008 0.000009 0.000010 -0.000006 -0.040868 -0.052241 -0.046620 -0.000003 0.000011 0.000010 -0.000012 -0.000009 -0.000003 -0.000009 -0.000004 -0.000009 -0.316937 0.000035 0.038331 -89.359829 18.176595 -24.970431 79.325141 17.373773 -10.649595 4.034675 -0.235096 2.684617 0.000046 -0.000004 -0.000001 0.274219 0.099813 0.179215 18.690306 -106.469057 95.068051 88.831262 17.984686 -13.183010 -0.610793 -0.377367 0.318412 -1.361528 -0.383643 -0.060482 
-0.057053 1.256310 1.442556 4.836365 26.908751 28.459679 -0.047584 0.129458 0.268601 -0.000001 -0.000006 -0.000004 -4.839257 4.207641 0.062486 -17.171104 13.500370 1.581819 -0.016945 -0.035887 0.659142 -25.686410 7.682418 6.264971 -37.082043 25.266389 11.116434 0.098347 -0.218339 0.625144 -7.082970 -0.516004 0.065341 6.539013 -55.267176 10.332404 0.032636 0.109243 -1.512316 0.000007 -0.000007 0.000037 0.277020 -0.000371 0.029135 0.000001 0.000001 0.000001 0.000008 -0.000002 -0.000001 0.000004 -0.000011 0.000008 0.262229 0.065532 0.037241 -0.000002 0.000004 -0.000003 -0.000003 -0.000001 -0.000002 -0.000000 0.000002 0.000004 0.230345 0.126942 0.032030 -0.000001 0.000005 -0.000005 0.000004 -0.000009 -0.000003 0.000003 -0.000002 0.000017 0.201165 0.166987 -0.001934 -0.000002 0.000013 -0.000004 0.000006 0.000005 0.000019 -0.000002 0.000016 -0.000007 0.065536 -0.022202 -0.042254 0.000009 0.000006 -0.000014 -0.000007 -0.000018 0.000014 0.000011 -0.000021 0.000014 -0.017030 -0.250910 0.620405 -10.191927 29.854733 5.295123 -108.086487 -38.208915 50.670370 0.070510 0.220870 -3.068863 -0.000001 0.000010 -0.000003 -0.237335 -0.145590 0.008009 -0.000001 0.000020 0.000003 -0.000013 0.000005 0.000002 0.000004 0.000007 0.000005 -0.259798 -0.081854 0.015799 -0.000006 0.000003 0.000008 -0.000003 -0.000002 -0.000002 0.000007 0.000005 0.000006 -0.264385 -0.012736 0.011707 -0.000003 0.000010 0.000005 -0.000003 -0.000008 -0.000009 0.000002 -0.000009 -0.000001 -0.257927 0.037371 -0.020793 -0.000006 0.000013 -0.000003 -0.000001 0.000004 0.000009 -0.000005 0.000007 -0.000001 -0.040868 -0.052241 -0.046620 -0.000017 0.000014 0.000002 0.000009 -0.000004 -0.000006 -0.000023 -0.000005 -0.000014 -0.316901 -0.000087 0.038253 -89.230466 17.960894 -24.872489 79.056407 17.350644 -10.579578 4.287574 -0.240470 2.847376 -0.000093 -0.000043 -0.000008 0.274219 0.099813 0.179215 17.513032 -106.050018 93.860323 88.706877 17.979308 -13.149298 -0.655877 -0.282324 0.133817 -1.347087 -0.379578 -0.059798 
-0.055174 1.254013 1.442995 4.719125 26.673719 28.299456 -0.047584 0.129458 0.268601 0.000000 -0.000005 0.000000 -4.775302 4.254709 0.094981 -17.017836 13.640215 1.724342 -0.016944 -0.035887 0.659143 -26.005459 7.635288 6.286912 -37.829433 24.410476 10.896926 0.098348 -0.218338 0.625144 -7.288987 -0.259210 0.100620 6.474737 -55.924520 10.038731 0.018843 0.064298 -0.888683 0.000009 -0.000004 0.000042 0.277020 -0.000371 0.029135 0.000005 0.000005 0.000003 0.000006 -0.000003 -0.000006 0.000009 -0.000011 0.000007 0.262230 0.065532 0.037240 -0.000001 0.000008 -0.000003 0.000001 0.000001 -0.000002 -0.000001 -0.000001 0.000000 0.230346 0.126942 0.032029 -0.000004 0.000005 -0.000000 -0.000001 -0.000007 0.000005 0.000001 0.000002 0.000006 0.201165 0.166987 -0.001935 0.000001 0.000015 -0.000006 0.000011 0.000009 0.000015 -0.000004 0.000013 -0.000004 0.065537 -0.022203 -0.042253 0.000003 0.000014 -0.000010 -0.000009 -0.000007 0.000012 0.000004 -0.000019 0.000028 -0.017029 -0.250910 0.620406 -10.158902 29.808708 5.225198 -108.265991 -38.146593 50.613973 0.072379 0.226430 -3.146868 -0.000004 0.000009 0.000003 -0.237336 -0.145590 0.008009 -0.000007 0.000006 -0.000008 -0.000001 0.000006 -0.000000 -0.000003 0.000008 0.000003 -0.259800 -0.081853 0.015799 0.000000 -0.000007 0.000007 -0.000003 0.000004 0.000003 0.000000 0.000007 -0.000007 -0.264386 -0.012736 0.011707 -0.000002 -0.000006 0.000007 -0.000001 -0.000015 -0.000012 -0.000003 -0.000006 0.000006 -0.257928 0.037371 -0.020793 -0.000001 0.000002 0.000001 -0.000000 0.000003 0.000008 0.000001 0.000004 -0.000003 -0.040869 -0.052241 -0.046620 -0.000020 0.000004 -0.000003 -0.000004 -0.000006 -0.000007 -0.000020 0.000001 -0.000015 -0.316841 -0.000289 0.038125 -89.018368 17.798174 -24.779694 79.063483 17.351262 -10.581427 4.126465 -0.290397 2.841296 -0.000154 -0.000050 -0.000011 0.274219 0.099813 0.179215 16.617582 -105.743445 92.805933 88.719424 17.979855 -13.152700 -0.702574 -0.251173 0.056666 -1.337129 -0.376775 -0.059322 
